<svg xmlns="http://www.w3.org/2000/svg" viewBox="0 0 560 240">
  <defs><linearGradient id="g" x1="0" y1="0" x2="1" y2="1"><stop offset="0" stop-color="#0a84ff"/><stop offset="1" stop-color="#5e5ce6"/></linearGradient></defs>
  <rect width="560" height="240" fill="#ffffff"/>
  <path d="M192.00,108.00 L191.98,124.17 L191.92,130.48 L191.82,135.26 L191.68,139.25 L191.51,142.72 L191.29,145.84 L191.03,148.68 L190.73,151.30 L190.39,153.74 L190.02,156.02 L189.60,158.17 L189.14,160.19 L188.64,162.11 L188.09,163.94 L187.51,165.67 L186.88,167.33 L186.21,168.90 L185.50,170.41 L184.74,171.85 L183.94,173.22 L183.09,174.53 L182.19,175.79 L181.25,176.99 L180.26,178.13 L179.22,179.22 L178.13,180.26 L176.99,181.25 L175.79,182.19 L174.53,183.09 L173.22,183.94 L171.85,184.74 L170.41,185.50 L168.90,186.21 L167.33,186.88 L165.67,187.51 L163.94,188.09 L162.11,188.64 L160.19,189.14 L158.17,189.60 L156.02,190.02 L153.74,190.39 L151.30,190.73 L148.68,191.03 L145.84,191.29 L142.72,191.51 L139.25,191.68 L135.26,191.82 L130.48,191.92 L124.17,191.98 L108.00,192.00 L91.83,191.98 L85.52,191.92 L80.74,191.82 L76.75,191.68 L73.28,191.51 L70.16,191.29 L67.32,191.03 L64.70,190.73 L62.26,190.39 L59.98,190.02 L57.83,189.60 L55.81,189.14 L53.89,188.64 L52.06,188.09 L50.33,187.51 L48.67,186.88 L47.10,186.21 L45.59,185.50 L44.15,184.74 L42.78,183.94 L41.47,183.09 L40.21,182.19 L39.01,181.25 L37.87,180.26 L36.78,179.22 L35.74,178.13 L34.75,176.99 L33.81,175.79 L32.91,174.53 L32.06,173.22 L31.26,171.85 L30.50,170.41 L29.79,168.90 L29.12,167.33 L28.49,165.67 L27.91,163.94 L27.36,162.11 L26.86,160.19 L26.40,158.17 L25.98,156.02 L25.61,153.74 L25.27,151.30 L24.97,148.68 L24.71,145.84 L24.49,142.72 L24.32,139.25 L24.18,135.26 L24.08,130.48 L24.02,124.17 L24.00,108.00 L24.02,91.83 L24.08,85.52 L24.18,80.74 L24.32,76.75 L24.49,73.28 L24.71,70.16 L24.97,67.32 L25.27,64.70 L25.61,62.26 L25.98,59.98 L26.40,57.83 L26.86,55.81 L27.36,53.89 L27.91,52.06 L28.49,50.33 L29.12,48.67 L29.79,47.10 L30.50,45.59 L31.26,44.15 L32.06,42.78 L32.91,41.47 L33.81,40.21 L34.75,39.01 L35.74,37.87 L36.78,36.78 L37.87,35.74 L39.01,34.75 L40.21,33.81 L41.47,32.91 L42.78,32.06 L44.15,31.26 L45.59,30.50 L47.10,29.79 L48.67,29.12 L50.33,28.49 L52.06,27.91 L53.89,27.36 L55.81,26.86 L57.83,26.40 L59.98,25.98 L62.26,25.61 L64.70,25.27 L67.32,24.97 L70.16,24.71 L73.28,24.49 L76.75,24.32 L80.74,24.18 L85.52,24.08 L91.83,24.02 L108.00,24.00 L124.17,24.02 L130.48,24.08 L135.26,24.18 L139.25,24.32 L142.72,24.49 L145.84,24.71 L148.68,24.97 L151.30,25.27 L153.74,25.61 L156.02,25.98 L158.17,26.40 L160.19,26.86 L162.11,27.36 L163.94,27.91 L165.67,28.49 L167.33,29.12 L168.90,29.79 L170.41,30.50 L171.85,31.26 L173.22,32.06 L174.53,32.91 L175.79,33.81 L176.99,34.75 L178.13,35.74 L179.22,36.78 L180.26,37.87 L181.25,39.01 L182.19,40.21 L183.09,41.47 L183.94,42.78 L184.74,44.15 L185.50,45.59 L186.21,47.10 L186.88,48.67 L187.51,50.33 L188.09,52.06 L188.64,53.89 L189.14,55.81 L189.60,57.83 L190.02,59.98 L190.39,62.26 L190.73,64.70 L191.03,67.32 L191.29,70.16 L191.51,73.28 L191.68,76.75 L191.82,80.74 L191.92,85.52 L191.98,91.83 L192.00,108.00 Z" fill="url(#g)"/>
  <path d="M78 110 L100 132 L146 86" fill="none" stroke="#ffffff" stroke-width="16"
        stroke-linecap="round" stroke-linejoin="round"/>
  <text x="222" y="146" font-family="Liberation Sans" font-size="104" font-weight="bold"
        letter-spacing="-4" fill="#1d1d1f">xci</text>
</svg>