<svg xmlns="http://www.w3.org/2000/svg" viewBox="0 0 240 240"><defs><linearGradient id="ac" x1="0" y1="0" x2="1" y2="1"><stop offset="0" stop-color="#0a84ff"/><stop offset="1" stop-color="#5e5ce6"/></linearGradient></defs><path d="M232.00,120.00 L231.97,142.66 L231.87,151.52 L231.71,158.21 L231.48,163.79 L231.19,168.66 L230.83,173.01 L230.40,176.98 L229.91,180.63 L229.36,184.03 L228.73,187.20 L228.04,190.17 L227.28,192.98 L226.45,195.63 L225.55,198.13 L224.59,200.51 L223.55,202.77 L222.43,204.92 L221.25,206.96 L219.99,208.90 L218.65,210.74 L217.24,212.50 L215.74,214.16 L214.16,215.74 L212.50,217.24 L210.74,218.65 L208.90,219.99 L206.96,221.25 L204.92,222.43 L202.77,223.55 L200.51,224.59 L198.13,225.55 L195.63,226.45 L192.98,227.28 L190.17,228.04 L187.20,228.73 L184.03,229.36 L180.63,229.91 L176.98,230.40 L173.01,230.83 L168.66,231.19 L163.79,231.48 L158.21,231.71 L151.52,231.87 L142.66,231.97 L120.00,232.00 L97.34,231.97 L88.48,231.87 L81.79,231.71 L76.21,231.48 L71.34,231.19 L66.99,230.83 L63.02,230.40 L59.37,229.91 L55.97,229.36 L52.80,228.73 L49.83,228.04 L47.02,227.28 L44.37,226.45 L41.87,225.55 L39.49,224.59 L37.23,223.55 L35.08,222.43 L33.04,221.25 L31.10,219.99 L29.26,218.65 L27.50,217.24 L25.84,215.74 L24.26,214.16 L22.76,212.50 L21.35,210.74 L20.01,208.90 L18.75,206.96 L17.57,204.92 L16.45,202.77 L15.41,200.51 L14.45,198.13 L13.55,195.63 L12.72,192.98 L11.96,190.17 L11.27,187.20 L10.64,184.03 L10.09,180.63 L9.60,176.98 L9.17,173.01 L8.81,168.66 L8.52,163.79 L8.29,158.21 L8.13,151.52 L8.03,142.66 L8.00,120.00 L8.03,97.34 L8.13,88.48 L8.29,81.79 L8.52,76.21 L8.81,71.34 L9.17,66.99 L9.60,63.02 L10.09,59.37 L10.64,55.97 L11.27,52.80 L11.96,49.83 L12.72,47.02 L13.55,44.37 L14.45,41.87 L15.41,39.49 L16.45,37.23 L17.57,35.08 L18.75,33.04 L20.01,31.10 L21.35,29.26 L22.76,27.50 L24.26,25.84 L25.84,24.26 L27.50,22.76 L29.26,21.35 L31.10,20.01 L33.04,18.75 L35.08,17.57 L37.23,16.45 L39.49,15.41 L41.87,14.45 L44.37,13.55 L47.02,12.72 L49.83,11.96 L52.80,11.27 L55.97,10.64 L59.37,10.09 L63.02,9.60 L66.99,9.17 L71.34,8.81 L76.21,8.52 L81.79,8.29 L88.48,8.13 L97.34,8.03 L120.00,8.00 L142.66,8.03 L151.52,8.13 L158.21,8.29 L163.79,8.52 L168.66,8.81 L173.01,9.17 L176.98,9.60 L180.63,10.09 L184.03,10.64 L187.20,11.27 L190.17,11.96 L192.98,12.72 L195.63,13.55 L198.13,14.45 L200.51,15.41 L202.77,16.45 L204.92,17.57 L206.96,18.75 L208.90,20.01 L210.74,21.35 L212.50,22.76 L214.16,24.26 L215.74,25.84 L217.24,27.50 L218.65,29.26 L219.99,31.10 L221.25,33.04 L222.43,35.08 L223.55,37.23 L224.59,39.49 L225.55,41.87 L226.45,44.37 L227.28,47.02 L228.04,49.83 L228.73,52.80 L229.36,55.97 L229.91,59.37 L230.40,63.02 L230.83,66.99 L231.19,71.34 L231.48,76.21 L231.71,81.79 L231.87,88.48 L231.97,97.34 L232.00,120.00 Z" fill="#ffffff" stroke="#ececf2" stroke-width="2"/><polyline points="36,84 54,120 36,156" fill="none" stroke="#1d1d1f" stroke-width="16" stroke-linecap="round" stroke-linejoin="round"/><path d="M152.0 153.1 A46 46 0 1 1 152.0 86.9" fill="none" stroke="#1d1d1f" stroke-width="16" stroke-linecap="round"/><polyline points="144.5,144.1 167.5,144.1 156.0,164.0" fill="none" stroke="url(#ac)" stroke-width="11" stroke-linecap="round" stroke-linejoin="round"/><polyline points="204,84 186,120 204,156" fill="none" stroke="#1d1d1f" stroke-width="16" stroke-linecap="round" stroke-linejoin="round"/><rect x="108.5" y="84" width="23" height="23" rx="5" fill="url(#ac)"/><rect x="112" y="112" width="16" height="44" rx="7" fill="#1d1d1f"/></svg>