<svg xmlns="http://www.w3.org/2000/svg" viewBox="0 0 240 240">
  <defs><linearGradient id="g" x1="0" y1="0" x2="0" y2="1">
    <stop offset="0" stop-color="#3a3a3c"/><stop offset="1" stop-color="#161618"/></linearGradient>
  <linearGradient id="x" x1="0" y1="0" x2="0" y2="1">
    <stop offset="0" stop-color="#ffffff"/><stop offset="1" stop-color="#c9c9ce"/></linearGradient></defs>
  <path d="M232.00,120.00 L231.97,141.55 L231.89,149.98 L231.76,156.35 L231.58,161.66 L231.34,166.30 L231.05,170.45 L230.71,174.24 L230.31,177.73 L229.86,180.98 L229.36,184.03 L228.80,186.89 L228.18,189.59 L227.51,192.15 L226.79,194.58 L226.01,196.90 L225.17,199.10 L224.28,201.20 L223.33,203.21 L222.32,205.13 L221.25,206.96 L220.12,208.71 L218.92,210.38 L217.67,211.98 L216.35,213.51 L214.96,214.96 L213.51,216.35 L211.98,217.67 L210.38,218.92 L208.71,220.12 L206.96,221.25 L205.13,222.32 L203.21,223.33 L201.20,224.28 L199.10,225.17 L196.90,226.01 L194.58,226.79 L192.15,227.51 L189.59,228.18 L186.89,228.80 L184.03,229.36 L180.98,229.86 L177.73,230.31 L174.24,230.71 L170.45,231.05 L166.30,231.34 L161.66,231.58 L156.35,231.76 L149.98,231.89 L141.55,231.97 L120.00,232.00 L98.45,231.97 L90.02,231.89 L83.65,231.76 L78.34,231.58 L73.70,231.34 L69.55,231.05 L65.76,230.71 L62.27,230.31 L59.02,229.86 L55.97,229.36 L53.11,228.80 L50.41,228.18 L47.85,227.51 L45.42,226.79 L43.10,226.01 L40.90,225.17 L38.80,224.28 L36.79,223.33 L34.87,222.32 L33.04,221.25 L31.29,220.12 L29.62,218.92 L28.02,217.67 L26.49,216.35 L25.04,214.96 L23.65,213.51 L22.33,211.98 L21.08,210.38 L19.88,208.71 L18.75,206.96 L17.68,205.13 L16.67,203.21 L15.72,201.20 L14.83,199.10 L13.99,196.90 L13.21,194.58 L12.49,192.15 L11.82,189.59 L11.20,186.89 L10.64,184.03 L10.14,180.98 L9.69,177.73 L9.29,174.24 L8.95,170.45 L8.66,166.30 L8.42,161.66 L8.24,156.35 L8.11,149.98 L8.03,141.55 L8.00,120.00 L8.03,98.45 L8.11,90.02 L8.24,83.65 L8.42,78.34 L8.66,73.70 L8.95,69.55 L9.29,65.76 L9.69,62.27 L10.14,59.02 L10.64,55.97 L11.20,53.11 L11.82,50.41 L12.49,47.85 L13.21,45.42 L13.99,43.10 L14.83,40.90 L15.72,38.80 L16.67,36.79 L17.68,34.87 L18.75,33.04 L19.88,31.29 L21.08,29.62 L22.33,28.02 L23.65,26.49 L25.04,25.04 L26.49,23.65 L28.02,22.33 L29.62,21.08 L31.29,19.88 L33.04,18.75 L34.87,17.68 L36.79,16.67 L38.80,15.72 L40.90,14.83 L43.10,13.99 L45.42,13.21 L47.85,12.49 L50.41,11.82 L53.11,11.20 L55.97,10.64 L59.02,10.14 L62.27,9.69 L65.76,9.29 L69.55,8.95 L73.70,8.66 L78.34,8.42 L83.65,8.24 L90.02,8.11 L98.45,8.03 L120.00,8.00 L141.55,8.03 L149.98,8.11 L156.35,8.24 L161.66,8.42 L166.30,8.66 L170.45,8.95 L174.24,9.29 L177.73,9.69 L180.98,10.14 L184.03,10.64 L186.89,11.20 L189.59,11.82 L192.15,12.49 L194.58,13.21 L196.90,13.99 L199.10,14.83 L201.20,15.72 L203.21,16.67 L205.13,17.68 L206.96,18.75 L208.71,19.88 L210.38,21.08 L211.98,22.33 L213.51,23.65 L214.96,25.04 L216.35,26.49 L217.67,28.02 L218.92,29.62 L220.12,31.29 L221.25,33.04 L222.32,34.87 L223.33,36.79 L224.28,38.80 L225.17,40.90 L226.01,43.10 L226.79,45.42 L227.51,47.85 L228.18,50.41 L228.80,53.11 L229.36,55.97 L229.86,59.02 L230.31,62.27 L230.71,65.76 L231.05,69.55 L231.34,73.70 L231.58,78.34 L231.76,83.65 L231.89,90.02 L231.97,98.45 L232.00,120.00 Z" fill="url(#g)"/><path d="M232.00,120.00 L231.97,141.55 L231.89,149.98 L231.76,156.35 L231.58,161.66 L231.34,166.30 L231.05,170.45 L230.71,174.24 L230.31,177.73 L229.86,180.98 L229.36,184.03 L228.80,186.89 L228.18,189.59 L227.51,192.15 L226.79,194.58 L226.01,196.90 L225.17,199.10 L224.28,201.20 L223.33,203.21 L222.32,205.13 L221.25,206.96 L220.12,208.71 L218.92,210.38 L217.67,211.98 L216.35,213.51 L214.96,214.96 L213.51,216.35 L211.98,217.67 L210.38,218.92 L208.71,220.12 L206.96,221.25 L205.13,222.32 L203.21,223.33 L201.20,224.28 L199.10,225.17 L196.90,226.01 L194.58,226.79 L192.15,227.51 L189.59,228.18 L186.89,228.80 L184.03,229.36 L180.98,229.86 L177.73,230.31 L174.24,230.71 L170.45,231.05 L166.30,231.34 L161.66,231.58 L156.35,231.76 L149.98,231.89 L141.55,231.97 L120.00,232.00 L98.45,231.97 L90.02,231.89 L83.65,231.76 L78.34,231.58 L73.70,231.34 L69.55,231.05 L65.76,230.71 L62.27,230.31 L59.02,229.86 L55.97,229.36 L53.11,228.80 L50.41,228.18 L47.85,227.51 L45.42,226.79 L43.10,226.01 L40.90,225.17 L38.80,224.28 L36.79,223.33 L34.87,222.32 L33.04,221.25 L31.29,220.12 L29.62,218.92 L28.02,217.67 L26.49,216.35 L25.04,214.96 L23.65,213.51 L22.33,211.98 L21.08,210.38 L19.88,208.71 L18.75,206.96 L17.68,205.13 L16.67,203.21 L15.72,201.20 L14.83,199.10 L13.99,196.90 L13.21,194.58 L12.49,192.15 L11.82,189.59 L11.20,186.89 L10.64,184.03 L10.14,180.98 L9.69,177.73 L9.29,174.24 L8.95,170.45 L8.66,166.30 L8.42,161.66 L8.24,156.35 L8.11,149.98 L8.03,141.55 L8.00,120.00 L8.03,98.45 L8.11,90.02 L8.24,83.65 L8.42,78.34 L8.66,73.70 L8.95,69.55 L9.29,65.76 L9.69,62.27 L10.14,59.02 L10.64,55.97 L11.20,53.11 L11.82,50.41 L12.49,47.85 L13.21,45.42 L13.99,43.10 L14.83,40.90 L15.72,38.80 L16.67,36.79 L17.68,34.87 L18.75,33.04 L19.88,31.29 L21.08,29.62 L22.33,28.02 L23.65,26.49 L25.04,25.04 L26.49,23.65 L28.02,22.33 L29.62,21.08 L31.29,19.88 L33.04,18.75 L34.87,17.68 L36.79,16.67 L38.80,15.72 L40.90,14.83 L43.10,13.99 L45.42,13.21 L47.85,12.49 L50.41,11.82 L53.11,11.20 L55.97,10.64 L59.02,10.14 L62.27,9.69 L65.76,9.29 L69.55,8.95 L73.70,8.66 L78.34,8.42 L83.65,8.24 L90.02,8.11 L98.45,8.03 L120.00,8.00 L141.55,8.03 L149.98,8.11 L156.35,8.24 L161.66,8.42 L166.30,8.66 L170.45,8.95 L174.24,9.29 L177.73,9.69 L180.98,10.14 L184.03,10.64 L186.89,11.20 L189.59,11.82 L192.15,12.49 L194.58,13.21 L196.90,13.99 L199.10,14.83 L201.20,15.72 L203.21,16.67 L205.13,17.68 L206.96,18.75 L208.71,19.88 L210.38,21.08 L211.98,22.33 L213.51,23.65 L214.96,25.04 L216.35,26.49 L217.67,28.02 L218.92,29.62 L220.12,31.29 L221.25,33.04 L222.32,34.87 L223.33,36.79 L224.28,38.80 L225.17,40.90 L226.01,43.10 L226.79,45.42 L227.51,47.85 L228.18,50.41 L228.80,53.11 L229.36,55.97 L229.86,59.02 L230.31,62.27 L230.71,65.76 L231.05,69.55 L231.34,73.70 L231.58,78.34 L231.76,83.65 L231.89,90.02 L231.97,98.45 L232.00,120.00 Z" fill="none" stroke="#ffffff" stroke-opacity="0.10" stroke-width="2"/>
  <g stroke="url(#x)" stroke-width="22" stroke-linecap="round">
    <line x1="86" y1="86" x2="154" y2="154"/><line x1="154" y1="86" x2="86" y2="154"/></g>
</svg>